<svg height="512" viewBox="0 0 512 512" width="512" xmlns="http://www.w3.org/2000/svg" xmlns:xlink="http://www.w3.org/1999/xlink"><linearGradient id="linear-gradient" gradientUnits="userSpaceOnUse" x1="173.243" x2="376.795" y1="368.795" y2="165.243"><stop offset="0" stop-color="#41dfd0"/><stop offset="1" stop-color="#ee83ef"/></linearGradient><g id="gradient"><path d="m176 312a143.133 143.133 0 0 0 76.616-22.129l36.521 36.521a8 8 0 0 0 0 11.314l130.107 130.107a40 40 0 1 0 56.569-56.568l-130.107-130.108a8 8 0 0 0 -11.314 0l-36.521-36.521a143.133 143.133 0 0 0 22.129-76.616c0-79.4-64.6-144-144-144s-144 64.6-144 144 64.6 144 144 144zm288.5 110.558a24 24 0 1 1 -33.94 33.942l-124.452-124.451 33.941-33.942zm-164.049-107.48-33.941-33.941 22.627-22.627 33.941 33.941zm-124.451-275.078a128 128 0 1 1 -128 128 128.145 128.145 0 0 1 128-128zm0 240a112 112 0 1 0 -112-112 112.127 112.127 0 0 0 112 112zm0-208a96 96 0 1 1 -96 96 96.108 96.108 0 0 1 96-96zm-44 91.7v36.3a8 8 0 0 0 8 8h64a8 8 0 0 0 7.694-5.83l22.366 5.591a8 8 0 0 0 9.94-7.761v-32a8 8 0 0 0 -9.94-7.761l-22.06 5.515v-2.054a31.985 31.985 0 1 0 -40-48.827 31.984 31.984 0 1 0 -40 48.827zm96 14.551v11.508l-16-4v-3.508zm-32-2.251v16h-48v-24h48zm0-56a16 16 0 1 1 -16 16 16.019 16.019 0 0 1 16-16zm-48 0a16 16 0 1 1 -16 16 16.019 16.019 0 0 1 16-16zm36 112a8 8 0 1 1 -8-8 8 8 0 0 1 8 8zm-32 0a8 8 0 1 1 -8-8 8 8 0 0 1 8 8zm64 0a8 8 0 1 1 -8-8 8 8 0 0 1 8 8z" fill="url(#linear-gradient)"/></g></svg>